<?xml version="1.0" encoding="UTF-8" standalone="no"?>
<!DOCTYPE svg PUBLIC "-//W3C//DTD SVG 1.1//EN" "http://www.w3.org/Graphics/SVG/1.1/DTD/svg11.dtd">
<svg width="100%" height="100%" viewBox="0 0 1865 2482" version="1.1" xmlns="http://www.w3.org/2000/svg" xmlns:xlink="http://www.w3.org/1999/xlink" xml:space="preserve" xmlns:serif="http://www.serif.com/" style="fill-rule:evenodd;clip-rule:evenodd;stroke-linejoin:round;stroke-miterlimit:2;">
    <g transform="matrix(1,0,0,1,-18821.4,0.332299)">
        <g transform="matrix(8.33333,0,0,8.33333,0,0)">
            <g transform="matrix(1,0,0,1,2407.72,-55.3213)">
                <path d="M0,353.036L-74.548,353.036C-115.749,353.036 -149.149,319.636 -149.149,278.435L-149.149,55.281L74.601,55.31L74.601,278.435C74.601,319.636 41.201,353.036 0,353.036" style="fill:rgb(254,198,1);fill-rule:nonzero;"/>
            </g>
        </g>
        <g transform="matrix(8.33333,0,0,8.33333,0,0)">
            <g transform="matrix(1,0,0,1,2302.1,195.18)">
                <path d="M0,13.724L2.012,13.724C5.778,13.724 6.903,6.686 6.903,3.796C6.903,1.168 5.918,0.015 4.054,0.015L2.778,0.015L0,13.724ZM-3.96,-5.432L5.179,-5.432C11.716,-5.432 15.005,-1.033 15.005,4.59C15.005,12.065 11.189,19.156 2.123,19.156L-8.915,19.156L-3.96,-5.432Z" style="fill:rgb(13,58,131);fill-rule:nonzero;"/>
            </g>
        </g>
        <g transform="matrix(8.33333,0,0,8.33333,0,0)">
            <g transform="matrix(1,0,0,1,2338.55,199.305)">
                <path d="M0,5.474L-9.065,5.474L-9.838,9.335L0.826,9.335L-0.932,15.031L-18.455,15.031L-13.5,-9.557L3.41,-9.557L2.257,-3.825L-7.182,-3.825L-7.892,-0.258L1.173,-0.258L0,5.474Z" style="fill:rgb(13,58,131);fill-rule:nonzero;"/>
            </g>
        </g>
        <g transform="matrix(8.33333,0,0,8.33333,0,0)">
            <g transform="matrix(1,0,0,1,2365.53,197.584)">
                <path d="M0,8.924C-1.405,13.907 -4.998,17.338 -11.522,17.338C-18.329,17.338 -20.968,13.102 -20.968,7.285C-20.968,0.752 -17.589,-8.414 -8.048,-8.414C-0.344,-8.414 1.535,-3.487 1.365,0.445L-6.362,0.445C-6.255,-1.375 -6.448,-2.826 -8.35,-2.826C-11.382,-2.826 -12.86,4.063 -12.86,8.162C-12.86,10.358 -12.209,11.7 -10.722,11.7C-8.952,11.7 -8.323,10.478 -7.776,8.924L0,8.924Z" style="fill:rgb(13,58,131);fill-rule:nonzero;"/>
            </g>
        </g>
        <g transform="matrix(8.33333,0,0,8.33333,0,0)">
            <g transform="matrix(1,0,0,1,2391.57,197.584)">
                <path d="M0,8.924C-1.405,13.907 -4.998,17.338 -11.522,17.338C-18.329,17.338 -20.967,13.102 -20.967,7.285C-20.967,0.752 -17.589,-8.414 -8.048,-8.414C-0.344,-8.414 1.535,-3.487 1.365,0.445L-6.362,0.445C-6.255,-1.375 -6.448,-2.826 -8.35,-2.826C-11.381,-2.826 -12.86,4.063 -12.86,8.162C-12.86,10.358 -12.208,11.7 -10.721,11.7C-8.952,11.7 -8.323,10.478 -7.776,8.924L0,8.924Z" style="fill:rgb(13,58,131);fill-rule:nonzero;"/>
            </g>
        </g>
        <g transform="matrix(8.33333,0,0,8.33333,0,0)">
            <g transform="matrix(1,0,0,1,2408.7,200.251)">
                <path d="M0,3.582C0.017,1.108 0.081,-2.897 0.236,-5.633L-0.041,-5.633C-0.967,-2.603 -2.066,0.454 -3.215,3.582L0,3.582ZM-5.386,9.683L-7.081,14.085L-14.993,14.085C-14.245,12.513 -5.21,-8.552 -4.265,-10.503L6.535,-10.503L7.559,14.085L-0.203,14.085L-0.174,9.683L-5.386,9.683Z" style="fill:rgb(13,58,131);fill-rule:nonzero;"/>
            </g>
        </g>
        <g transform="matrix(8.33333,0,0,8.33333,0,0)">
            <g transform="matrix(1,0,0,1,2420.9,189.749)">
                <path d="M0,24.587L4.955,0L14.001,0L15.501,13.678L15.677,13.678C16.017,10.76 16.73,6.777 17.438,3.215L18.085,0L25.143,0L20.188,24.587L11.461,24.587L9.866,9.912L9.751,9.912C9.39,12.996 8.562,17.032 7.732,21.123L7.031,24.587L0,24.587Z" style="fill:rgb(13,58,131);fill-rule:nonzero;"/>
            </g>
        </g>
        <g transform="matrix(8.33333,0,0,8.33333,0,0)">
            <g transform="matrix(1,0,0,1,2299.95,235.609)">
                <path d="M0,-10.918L-4.729,-10.918L-3.915,-14.614L10.623,-14.614L9.808,-10.918L5.099,-10.918L1.903,3.696L-3.196,3.696L0,-10.918Z" style="fill:rgb(13,58,131);fill-rule:nonzero;"/>
            </g>
        </g>
        <g transform="matrix(8.33333,0,0,8.33333,0,0)">
            <g transform="matrix(1,0,0,1,2317.26,231.651)">
                <path d="M0,-3.001L2.19,-3.001C4.157,-3.001 5.137,-3.889 5.137,-5.398C5.137,-6.777 4.122,-7.215 3.021,-7.215L0.916,-7.215L0,-3.001ZM-0.758,0.448L-2.327,7.654L-7.258,7.654L-3.249,-10.655L4.257,-10.655C8.309,-10.655 10.33,-8.641 10.33,-6.037C10.33,-3.555 8.859,-1.926 6.697,-1.199C8.086,-0.415 8.556,1.056 7.982,3.766C7.527,5.831 7.43,6.985 7.376,7.654L2.476,7.654C2.466,7.087 2.565,5.867 3.099,3.503C3.522,1.595 3.385,0.448 1.278,0.448L-0.758,0.448Z" style="fill:rgb(13,58,131);fill-rule:nonzero;"/>
            </g>
        </g>
        <g transform="matrix(8.33333,0,0,8.33333,0,0)">
            <g transform="matrix(1,0,0,1,2340.01,228.59)">
                <path d="M0,3.12C-0.132,0.367 -0.262,-2.431 -0.222,-4.318L-0.337,-4.318C-1.162,-2.2 -2.31,0.433 -3.583,3.12L0,3.12ZM-5.163,6.938L-6.94,10.715L-12.121,10.715C-10.224,7.055 -5.361,-3.05 -2.963,-7.595L3.856,-7.595L5.223,10.715L0.188,10.715L-0.032,6.938L-5.163,6.938Z" style="fill:rgb(13,58,131);fill-rule:nonzero;"/>
            </g>
        </g>
        <g transform="matrix(8.33333,0,0,8.33333,0,0)">
            <g transform="matrix(1,0,0,1,2348.31,220.996)">
                <path d="M0,18.309L4.01,0L10.075,0L12.473,11.756L12.567,11.756C12.843,9.615 13.422,6.87 14.045,4.025L14.923,0L19.521,0L15.511,18.309L9.668,18.309L7.205,5.821L7.148,5.821C6.819,8.121 6.183,11.048 5.485,14.217L4.588,18.309L0,18.309Z" style="fill:rgb(13,58,131);fill-rule:nonzero;"/>
            </g>
        </g>
        <g transform="matrix(8.33333,0,0,8.33333,0,0)">
            <g transform="matrix(1,0,0,1,2373.53,226.492)">
                <path d="M0,7.335C0.163,8.747 0.897,9.792 2.651,9.792C4.107,9.792 4.955,9.096 4.955,7.802C4.955,6.598 4.329,6.041 2.171,5.142C-1.421,3.657 -2.882,2.325 -2.882,-0.158C-2.882,-3.285 -0.533,-5.821 4.143,-5.821C9.069,-5.821 11.261,-3.208 11.233,-0.222L6.417,-0.222C6.317,-1.389 5.809,-2.449 4.114,-2.449C2.794,-2.449 2.237,-1.76 2.237,-0.823C2.237,0.115 2.903,0.575 4.961,1.393C9.238,3.096 10.26,4.829 10.26,7.043C10.26,10.661 7.522,13.156 2.418,13.156C-2.738,13.156 -4.81,10.533 -4.854,7.335L0,7.335Z" style="fill:rgb(13,58,131);fill-rule:nonzero;"/>
            </g>
        </g>
        <g transform="matrix(8.33333,0,0,8.33333,0,0)">
            <g transform="matrix(1,0,0,1,2403.25,226.638)">
                <path d="M0,7.043C-1.043,10.357 -3.534,13.01 -8.769,13.01C-13.844,13.01 -16.022,10.017 -16.022,5.668C-16.022,0.843 -13.255,-5.967 -5.937,-5.967C-0.462,-5.967 1.197,-2.612 1.059,0.355L-3.886,0.355C-3.909,-0.931 -4.163,-2.379 -6.291,-2.379C-9.409,-2.379 -10.755,2.593 -10.755,5.779C-10.755,8.112 -9.983,9.42 -8.204,9.42C-6.354,9.42 -5.636,8.39 -5.071,7.043L0,7.043Z" style="fill:rgb(13,58,131);fill-rule:nonzero;"/>
            </g>
        </g>
        <g transform="matrix(8.33333,0,0,8.33333,0,0)">
            <g transform="matrix(1,0,0,1,2412.03,227.73)">
                <path d="M0,4.857C0,7.171 0.868,8.346 2.707,8.346C6.162,8.346 7.428,2.542 7.428,-0.012C7.428,-2.32 6.658,-3.479 4.686,-3.479C1.334,-3.479 0,2.018 0,4.857M12.647,0.399C12.647,5.039 10.301,11.917 2.281,11.917C-2.96,11.917 -5.238,8.891 -5.238,4.471C-5.238,-0.042 -2.609,-7.06 5.025,-7.06C10.091,-7.06 12.647,-3.993 12.647,0.399" style="fill:rgb(13,58,131);fill-rule:nonzero;"/>
            </g>
        </g>
        <g transform="matrix(8.33333,0,0,8.33333,0,0)">
            <g transform="matrix(1,0,0,1,2426.77,220.996)">
                <path d="M0,18.309L4.01,0L10.075,0L12.473,11.756L12.567,11.756C12.843,9.615 13.422,6.87 14.046,4.025L14.923,0L19.521,0L15.511,18.309L9.668,18.309L7.205,5.821L7.148,5.821C6.819,8.121 6.183,11.048 5.485,14.217L4.588,18.309L0,18.309Z" style="fill:rgb(13,58,131);fill-rule:nonzero;"/>
            </g>
        </g>
        <g transform="matrix(8.33333,0,0,8.33333,0,0)">
            <g transform="matrix(1,0,0,1,2338.93,121.375)">
                <path d="M0,15.315L6.883,15.315L19.031,25.358L15.764,40.789L13.187,40.789L-2.617,27.865L0,15.315ZM67.082,-30.506L57.46,-30.506C52.201,-30.506 48.152,-36.658 48.922,-40.599L32.889,-40.689L30.863,-30.609L-1.077,-30.522L-1.965,-26.266L11.589,-15.076L27.601,-15.033L22.7,7.851L13.448,0.066L-12.833,0.066L-19.867,33.927L6.873,56.004L66.223,56.004L70.873,34.103L60.789,25.549L56.6,25.549L53.422,40.789L31.94,40.789L43.675,-15.076L81.255,-15.148L81.784,-18.229L67.082,-30.506Z" style="fill:rgb(13,58,131);fill-rule:nonzero;"/>
            </g>
        </g>
    </g>
</svg>
